<svg xmlns="http://www.w3.org/2000/svg" width="320" height="320" viewBox="0 0 320 320">
  <defs>
    <path id="p-star" d="M12 2 L14.9 8.5 L22 9.2 L16.7 13.9 L18.3 21 L12 17.3 L5.7 21 L7.3 13.9 L2 9.2 L9.1 8.5 Z" />
    <path id="p-heart" d="M12 21s-8-4.6-8-11.2C4 6 6.5 4 9 4c1.6 0 2.6.7 3 1.7C12.4 4.7 13.4 4 15 4c2.5 0 5 2 5 5.8C20 16.4 12 21 12 21z" />
    <path id="p-sparkle" d="M6 0 L7.5 4.5 L12 6 L7.5 7.5 L6 12 L4.5 7.5 L0 6 L4.5 4.5 Z" />
    <g id="p-note">
      <ellipse cx="7" cy="18" rx="4" ry="3" transform="rotate(-15 7 18)" />
      <rect x="10" y="3" width="2" height="15" />
      <path d="M12 3 C 17 4, 18 8, 15 11 C 17 8, 16 5, 12 6 Z" />
    </g>
  </defs>

  <rect width="320" height="320" fill="#fffdf0" />

  <g stroke="#ffd1dc" stroke-width="1.5" opacity="0.6">
    <line x1="0" y1="40" x2="320" y2="40" />
    <line x1="0" y1="80" x2="320" y2="80" />
    <line x1="0" y1="120" x2="320" y2="120" />
    <line x1="0" y1="160" x2="320" y2="160" />
    <line x1="0" y1="200" x2="320" y2="200" />
    <line x1="0" y1="240" x2="320" y2="240" />
    <line x1="0" y1="280" x2="320" y2="280" />
    <line x1="40" y1="0" x2="40" y2="320" />
    <line x1="80" y1="0" x2="80" y2="320" />
    <line x1="120" y1="0" x2="120" y2="320" />
    <line x1="160" y1="0" x2="160" y2="320" />
    <line x1="200" y1="0" x2="200" y2="320" />
    <line x1="240" y1="0" x2="240" y2="320" />
    <line x1="280" y1="0" x2="280" y2="320" />
  </g>

  <g stroke="#5c4643" stroke-width="1.1" stroke-linejoin="round">
    <use href="#p-star" x="0" y="0" transform="translate(42,38) scale(1.3)" fill="#fff3b0" />
    <use href="#p-heart" x="0" y="0" transform="translate(228,26) scale(1.2)" fill="#ffd1dc" />
    <use href="#p-note" x="0" y="0" transform="translate(120,96) rotate(-8) scale(1.15)" fill="#c5f4e2" />
    <use href="#p-sparkle" x="0" y="0" transform="translate(272,108) scale(1.6)" fill="#c5e3ff" stroke-width="0.8" />
    <use href="#p-sparkle" x="0" y="0" transform="translate(18,132) scale(1.3)" fill="#ff9eb5" stroke-width="0.8" />
    <use href="#p-heart" x="0" y="0" transform="translate(52,208) scale(1.25)" fill="#e6d7ff" />
    <use href="#p-star" x="0" y="0" transform="translate(238,212) scale(1.2)" fill="#c5f4e2" />
    <use href="#p-note" x="0" y="0" transform="translate(168,256) rotate(10) scale(1.05)" fill="#ffd1dc" />
    <use href="#p-sparkle" x="0" y="0" transform="translate(96,276) scale(1.2)" fill="#fff3b0" stroke-width="0.8" />
    <use href="#p-sparkle" x="0" y="0" transform="translate(292,14) scale(1.1)" fill="#ff7b9c" stroke-width="0.8" />
    <use href="#p-star" x="0" y="0" transform="translate(300,190) scale(0.95)" fill="#ffd1dc" />
  </g>
</svg>
